<svg width="108" height="26" viewBox="0 0 108 26" fill="none" xmlns="http://www.w3.org/2000/svg">
<path d="M1.72159 22V4.54545H8.26705C9.60795 4.54545 10.733 4.79545 11.642 5.29545C12.5568 5.79545 13.2472 6.48295 13.7131 7.35795C14.1847 8.22727 14.4205 9.21591 14.4205 10.3239C14.4205 11.4432 14.1847 12.4375 13.7131 13.3068C13.2415 14.1761 12.5455 14.8608 11.625 15.3608C10.7045 15.8551 9.57102 16.1023 8.22443 16.1023H3.88636V13.5028H7.7983C8.58239 13.5028 9.22443 13.3665 9.72443 13.0938C10.2244 12.821 10.5938 12.446 10.8324 11.9688C11.0767 11.4915 11.1989 10.9432 11.1989 10.3239C11.1989 9.70455 11.0767 9.15909 10.8324 8.6875C10.5938 8.21591 10.2216 7.84943 9.71591 7.58807C9.21591 7.32102 8.57102 7.1875 7.78125 7.1875H4.88352V22H1.72159ZM19.6358 14.3295V22H16.5505V4.54545H19.5676V11.1335H19.721C20.0278 10.3949 20.5022 9.8125 21.1443 9.38636C21.792 8.95455 22.6159 8.73864 23.6159 8.73864C24.525 8.73864 25.3176 8.92898 25.9937 9.30966C26.6699 9.69034 27.1926 10.2472 27.5619 10.9801C27.9369 11.7131 28.1244 12.608 28.1244 13.6648V22H25.0392V14.142C25.0392 13.2614 24.8119 12.5767 24.3574 12.0881C23.9085 11.5937 23.2778 11.3466 22.4653 11.3466C21.9199 11.3466 21.4312 11.4659 20.9994 11.7045C20.5733 11.9375 20.238 12.2756 19.9937 12.7188C19.7551 13.1619 19.6358 13.6989 19.6358 14.3295ZM34.5563 22.2642C33.7268 22.2642 32.9796 22.1165 32.3149 21.821C31.6558 21.5199 31.133 21.0767 30.7467 20.4915C30.366 19.9062 30.1757 19.1847 30.1757 18.3267C30.1757 17.5881 30.312 16.9773 30.5847 16.4943C30.8575 16.0114 31.2296 15.625 31.7012 15.3352C32.1728 15.0455 32.7041 14.8267 33.295 14.679C33.8916 14.5256 34.508 14.4148 35.1444 14.3466C35.9115 14.267 36.5336 14.196 37.0109 14.1335C37.4882 14.0653 37.8347 13.9631 38.0507 13.8267C38.2722 13.6847 38.383 13.4659 38.383 13.1705V13.1193C38.383 12.4773 38.1927 11.9801 37.812 11.6278C37.4313 11.2756 36.883 11.0994 36.1671 11.0994C35.4114 11.0994 34.812 11.2642 34.3688 11.5938C33.9313 11.9233 33.6359 12.3125 33.4825 12.7614L30.6018 12.3523C30.8291 11.5568 31.2041 10.892 31.7268 10.358C32.2495 9.81818 32.8887 9.41477 33.6444 9.14773C34.4001 8.875 35.2353 8.73864 36.1501 8.73864C36.7808 8.73864 37.4086 8.8125 38.0336 8.96023C38.6586 9.10795 39.2296 9.35227 39.7467 9.69318C40.2637 10.0284 40.6785 10.4858 40.991 11.0653C41.3092 11.6449 41.4683 12.3693 41.4683 13.2386V22H38.5024V20.2017H38.4001C38.2126 20.5653 37.9484 20.9062 37.6075 21.2244C37.2722 21.5369 36.8489 21.7898 36.3376 21.983C35.8319 22.1705 35.2382 22.2642 34.5563 22.2642ZM35.3575 19.9972C35.9768 19.9972 36.5137 19.875 36.9683 19.6307C37.4228 19.3807 37.7722 19.0511 38.0166 18.642C38.2666 18.233 38.3916 17.7869 38.3916 17.304V15.7614C38.295 15.8409 38.1302 15.9148 37.8972 15.983C37.67 16.0511 37.4143 16.1108 37.1302 16.1619C36.8461 16.2131 36.5649 16.2585 36.2864 16.2983C36.008 16.3381 35.7666 16.3722 35.562 16.4006C35.1018 16.4631 34.6899 16.5653 34.3262 16.7074C33.9626 16.8494 33.6757 17.0483 33.4654 17.304C33.2552 17.554 33.1501 17.8778 33.1501 18.2756C33.1501 18.8438 33.3575 19.2727 33.7722 19.5625C34.187 19.8523 34.7154 19.9972 35.3575 19.9972ZM44.0905 22V8.90909H47.082V11.0909H47.2184C47.457 10.3352 47.8661 9.75284 48.4457 9.34375C49.0309 8.92898 49.6985 8.72159 50.4485 8.72159C50.619 8.72159 50.8093 8.73011 51.0195 8.74716C51.2354 8.75852 51.4144 8.77841 51.5565 8.80682V11.6449C51.4258 11.5994 51.2184 11.5597 50.9343 11.5256C50.6559 11.4858 50.386 11.4659 50.1246 11.4659C49.5621 11.4659 49.0565 11.5881 48.6076 11.8324C48.1644 12.071 47.815 12.4034 47.5593 12.8295C47.3036 13.2557 47.1758 13.7472 47.1758 14.304V22H44.0905ZM53.1262 22V8.90909H56.075V11.1335H56.2284C56.5012 10.3835 56.9529 9.7983 57.5836 9.37784C58.2142 8.9517 58.9671 8.73864 59.8421 8.73864C60.7284 8.73864 61.4756 8.95455 62.0836 9.38636C62.6972 9.8125 63.129 10.3949 63.379 11.1335H63.5154C63.8051 10.4062 64.2938 9.8267 64.9813 9.39489C65.6745 8.95739 66.4955 8.73864 67.4443 8.73864C68.6489 8.73864 69.6318 9.11932 70.3932 9.88068C71.1546 10.642 71.5353 11.7528 71.5353 13.2131V22H68.4415V13.6903C68.4415 12.8778 68.2256 12.2841 67.7938 11.9091C67.362 11.5284 66.8336 11.3381 66.2086 11.3381C65.4642 11.3381 64.8818 11.571 64.4614 12.0369C64.0466 12.4972 63.8392 13.0966 63.8392 13.8352V22H60.8137V13.5625C60.8137 12.8864 60.6091 12.3466 60.2 11.9432C59.7966 11.5398 59.2682 11.3381 58.6148 11.3381C58.1716 11.3381 57.7682 11.4517 57.4046 11.679C57.0409 11.9006 56.7512 12.2159 56.5353 12.625C56.3193 13.0284 56.2114 13.5 56.2114 14.0398V22H53.1262ZM77.9523 22.2642C77.1227 22.2642 76.3756 22.1165 75.7108 21.821C75.0517 21.5199 74.529 21.0767 74.1426 20.4915C73.7619 19.9062 73.5716 19.1847 73.5716 18.3267C73.5716 17.5881 73.708 16.9773 73.9807 16.4943C74.2534 16.0114 74.6256 15.625 75.0972 15.3352C75.5687 15.0455 76.1 14.8267 76.6909 14.679C77.2875 14.5256 77.904 14.4148 78.5403 14.3466C79.3074 14.267 79.9295 14.196 80.4068 14.1335C80.8841 14.0653 81.2307 13.9631 81.4466 13.8267C81.6682 13.6847 81.779 13.4659 81.779 13.1705V13.1193C81.779 12.4773 81.5886 11.9801 81.208 11.6278C80.8273 11.2756 80.279 11.0994 79.5631 11.0994C78.8074 11.0994 78.208 11.2642 77.7648 11.5938C77.3273 11.9233 77.0318 12.3125 76.8784 12.7614L73.9977 12.3523C74.225 11.5568 74.6 10.892 75.1227 10.358C75.6455 9.81818 76.2847 9.41477 77.0403 9.14773C77.796 8.875 78.6312 8.73864 79.546 8.73864C80.1767 8.73864 80.8045 8.8125 81.4295 8.96023C82.0545 9.10795 82.6256 9.35227 83.1426 9.69318C83.6597 10.0284 84.0744 10.4858 84.3869 11.0653C84.7051 11.6449 84.8642 12.3693 84.8642 13.2386V22H81.8983V20.2017H81.796C81.6085 20.5653 81.3443 20.9062 81.0034 21.2244C80.6682 21.5369 80.2449 21.7898 79.7335 21.983C79.2278 22.1705 78.6341 22.2642 77.9523 22.2642ZM78.7534 19.9972C79.3727 19.9972 79.9097 19.875 80.3642 19.6307C80.8187 19.3807 81.1682 19.0511 81.4125 18.642C81.6625 18.233 81.7875 17.7869 81.7875 17.304V15.7614C81.6909 15.8409 81.5261 15.9148 81.2932 15.983C81.0659 16.0511 80.8102 16.1108 80.5261 16.1619C80.242 16.2131 79.9608 16.2585 79.6824 16.2983C79.404 16.3381 79.1625 16.3722 78.958 16.4006C78.4977 16.4631 78.0858 16.5653 77.7222 16.7074C77.3585 16.8494 77.0716 17.0483 76.8614 17.304C76.6511 17.554 76.546 17.8778 76.546 18.2756C76.546 18.8438 76.7534 19.2727 77.1682 19.5625C77.583 19.8523 78.1114 19.9972 78.7534 19.9972Z" fill="#064ACA"/>
<g clip-path="url(#clip0_0_11)">
<path d="M107.208 11.9167C107.208 10.6051 106.145 9.54175 104.833 9.54175H103.25V13.5001C103.25 13.9373 102.896 14.2917 102.458 14.2917H99.2917C98.8544 14.2917 98.5 14.6462 98.5 15.0834V18.2501C98.5 18.6873 98.1456 19.0417 97.7084 19.0417H94.5417V19.8334C94.5417 21.1451 95.605 22.2084 96.9167 22.2084H100.083C101.395 22.2084 102.458 21.1451 102.458 19.8334V17.4584H104.833C106.145 17.4584 107.208 16.3951 107.208 15.0834V11.9167Z" fill="#C4E6FF"/>
<path fill-rule="evenodd" clipRule="evenodd" d="M96.9167 6.37508C96.4795 6.37508 96.125 6.72953 96.125 7.16675V10.3334C96.125 10.7706 95.7706 11.1251 95.3334 11.1251H92.1667C91.7295 11.1251 91.375 11.4795 91.375 11.9167V15.0834C91.375 15.5207 91.7295 15.8751 92.1667 15.8751H95.3334C95.7706 15.8751 96.125 16.2295 96.125 16.6667V19.8334C96.125 20.2707 96.4795 20.6251 96.9167 20.6251H100.083C100.521 20.6251 100.875 20.2707 100.875 19.8334V16.6667C100.875 16.2295 101.229 15.8751 101.667 15.8751H104.833C105.271 15.8751 105.625 15.5207 105.625 15.0834V11.9167C105.625 11.4795 105.271 11.1251 104.833 11.1251H101.667C101.229 11.1251 100.875 10.7706 100.875 10.3334V7.16675C100.875 6.72953 100.521 6.37508 100.083 6.37508H96.9167ZM94.5417 7.16675C94.5417 5.85508 95.605 4.79175 96.9167 4.79175H100.083C101.395 4.79175 102.458 5.85508 102.458 7.16675V9.54175H104.833C106.145 9.54175 107.208 10.6051 107.208 11.9167V15.0834C107.208 16.3951 106.145 17.4584 104.833 17.4584H102.458V19.8334C102.458 21.1451 101.395 22.2084 100.083 22.2084H96.9167C95.605 22.2084 94.5417 21.1451 94.5417 19.8334V17.4584H92.1667C90.855 17.4584 89.7917 16.3951 89.7917 15.0834V11.9167C89.7917 10.6051 90.855 9.54175 92.1667 9.54175H94.5417V7.16675Z" fill="#064ACA"/>
<path d="M97.7083 21.4167C97.7083 21.854 98.0627 22.2084 98.5 22.2084H100.083C101.395 22.2084 102.458 21.1451 102.458 19.8334V17.4584H104.833C106.145 17.4584 107.208 16.3951 107.208 15.0834V11.9167C107.208 10.6051 106.145 9.54175 104.833 9.54175H102.458V7.16675C102.458 5.85508 101.395 4.79175 100.083 4.79175H98.5C98.0627 4.79175 97.7083 5.14619 97.7083 5.58341C97.7083 6.02064 98.0627 6.37508 98.5 6.37508H100.083C100.521 6.37508 100.875 6.72953 100.875 7.16675V10.3334C100.875 10.7706 101.229 11.1251 101.667 11.1251H104.833C105.271 11.1251 105.625 11.4795 105.625 11.9167V15.0834C105.625 15.5207 105.271 15.8751 104.833 15.8751H101.667C101.229 15.8751 100.875 16.2295 100.875 16.6667V19.8334C100.875 20.2707 100.521 20.6251 100.083 20.6251H98.5C98.0627 20.6251 97.7083 20.9795 97.7083 21.4167Z" fill="#3A77EA"/>
</g>
<defs>
<clipPath id="clip0_0_11">
<rect width="19" height="19" fill="white" transform="translate(89 4)"/>
</clipPath>
</defs>
</svg>
