<?xml version="1.0" standalone="no"?>
<svg viewBox="0 0 200 200" xmlns="http://www.w3.org/2000/svg">
  <path fill="#9EF0F0" d="M41.1,-62.7C50.5,-58,53.4,-41.8,57.9,-27.7C62.5,-13.5,68.8,-1.4,68,10.3C67.1,22,59.2,33.2,50.2,43.5C41.3,53.8,31.3,63.2,18.4,70.8C5.4,78.3,-10.5,84.1,-23.5,80.2C-36.6,76.3,-46.9,62.9,-52.4,49.4C-58,35.9,-58.9,22.2,-63.3,7.6C-67.8,-7,-75.7,-22.6,-74.6,-37.8C-73.4,-52.9,-63.1,-67.6,-49.2,-70.2C-35.2,-72.8,-17.6,-63.3,-0.9,-62C15.9,-60.6,31.8,-67.4,41.1,-62.7Z" transform="translate(100 100)" />
</svg>
